<?xml version="1.0" standalone="no"?>
<!DOCTYPE svg PUBLIC "-//W3C//DTD SVG 20010904//EN"
 "http://www.w3.org/TR/2001/REC-SVG-20010904/DTD/svg10.dtd">
<svg version="1.0" xmlns="http://www.w3.org/2000/svg"
 width="1895.000000pt" height="780.000000pt" viewBox="0 0 1895.000000 780.000000"
 preserveAspectRatio="xMidYMid meet">

<g transform="translate(0.000000,780.000000) scale(0.100000,-0.100000)"
fill="#000000" stroke="none">
<path d="M2 5398 c0 -1322 4 -2381 7 -2353 5 39 11 52 29 61 13 6 29 17 35 23
17 17 45 13 52 -9 3 -11 18 -28 32 -39 20 -16 26 -32 30 -79 5 -57 5 -59 -32
-95 -21 -20 -44 -37 -52 -37 -8 0 -29 16 -47 35 -46 49 -56 45 -56 -20 0 -48
2 -55 20 -55 47 0 49 -94 4 -224 -20 -59 -24 -89 -24 -198 0 -70 2 -128 4
-128 2 0 27 11 55 25 46 23 50 29 56 68 7 49 -13 123 -44 163 -11 15 -21 30
-21 35 0 18 76 59 108 59 37 0 36 4 16 -67 -4 -13 -2 -23 3 -23 5 0 16 25 23
55 21 89 24 91 120 78 45 -6 86 -16 90 -23 4 -7 3 -29 -2 -49 -9 -34 -7 -40
21 -70 32 -35 40 -71 18 -89 -8 -7 -18 -6 -31 4 -30 21 -66 18 -66 -6 0 -15 9
-21 41 -26 36 -6 40 -9 35 -30 -8 -32 19 -45 70 -34 62 15 136 11 179 -9 42
-19 70 -41 201 -154 43 -38 104 -82 134 -97 75 -38 106 -70 121 -121 7 -25 25
-54 41 -67 15 -13 28 -30 28 -37 0 -39 90 -46 197 -14 79 24 99 21 112 -13 14
-35 -28 -72 -154 -135 -60 -30 -132 -70 -159 -89 -26 -19 -53 -34 -59 -34 -6
0 -32 22 -57 50 -33 36 -54 50 -73 50 -18 0 -34 10 -49 30 -18 24 -29 30 -60
30 -66 0 -118 39 -186 141 -32 48 -95 109 -113 109 -5 0 3 -24 17 -52 34 -68
43 -158 20 -212 -26 -63 -20 -72 23 -33 21 19 52 38 68 41 51 12 123 -27 123
-66 0 -15 -3 -17 -19 -8 -29 15 -83 12 -108 -5 -13 -9 -43 -42 -68 -75 -27
-35 -79 -83 -128 -118 -86 -61 -100 -85 -55 -90 26 -3 27 -6 23 -45 -3 -23
-19 -174 -36 -334 l-30 -293 51 -61 c64 -77 72 -98 71 -177 l0 -62 58 -30 c49
-24 246 -90 271 -90 4 0 15 11 24 24 15 23 14 28 -9 78 -43 93 -28 257 30 326
31 37 66 51 263 106 152 42 359 118 462 169 36 17 52 34 77 82 73 135 108 293
123 563 11 180 13 189 40 235 25 39 28 52 19 74 -5 14 -8 27 -6 29 1 2 22 -13
46 -32 24 -18 50 -34 58 -34 11 0 13 -15 8 -77 -9 -103 -9 -104 -43 -97 -27 6
-30 3 -36 -30 -4 -20 -5 -40 -2 -45 3 -5 26 -6 51 -3 38 4 45 2 45 -13 0 -15
-7 -16 -50 -10 l-50 7 0 -35 0 -35 120 -12 c66 -7 118 -15 116 -18 -3 -2 -60
-21 -128 -41 l-123 -38 -9 -46 c-13 -71 -7 -77 68 -77 36 0 67 -4 70 -9 4 -5
-33 -22 -81 -38 l-87 -29 -13 -50 c-17 -65 -17 -64 15 -65 26 -1 26 -1 -5 -10
-24 -7 -37 -19 -48 -46 -8 -20 -13 -38 -11 -41 3 -2 26 3 53 12 26 8 94 27
150 41 l102 25 92 -20 c50 -11 118 -30 151 -41 58 -19 61 -19 91 -1 18 10 32
22 31 28 0 5 -39 20 -87 33 -48 13 -87 27 -87 31 0 4 39 12 88 19 164 22 148
15 172 78 11 30 19 57 18 59 -4 3 -29 8 -128 25 -36 6 -68 14 -72 18 -5 4 48
22 116 40 l124 34 17 59 c9 33 14 63 10 66 -4 4 -37 9 -73 12 l-67 6 75 23
c88 28 88 27 100 70 11 40 24 42 -184 -23 -82 -25 -157 -46 -166 -46 -12 0 -4
13 25 44 l42 43 146 13 147 13 10 36 c14 51 13 53 -20 46 -16 -4 -82 -12 -145
-19 l-115 -12 0 35 c-1 20 -5 81 -9 136 -5 55 -5 107 0 116 9 18 186 69 241
69 20 0 40 -6 46 -13 11 -12 36 -108 47 -181 5 -28 9 -36 18 -27 14 14 -6 151
-31 201 -27 55 -55 59 -175 28 -56 -14 -111 -29 -122 -33 -11 -4 3 16 32 43
43 41 64 53 110 63 89 20 203 18 237 -4 35 -23 62 -84 71 -160 6 -49 9 -57 23
-52 21 8 167 46 287 74 50 11 117 31 150 44 l60 24 -1 59 c0 32 -9 83 -18 112
-28 82 -69 102 -268 128 l-111 14 -138 133 -137 132 -1 58 c-1 54 -3 59 -31
75 -23 13 -30 24 -30 48 0 73 50 189 112 259 16 19 25 35 19 35 -22 0 -101
-122 -121 -187 -11 -36 -20 -73 -20 -83 0 -11 -5 -22 -10 -25 -6 -3 -10 1 -10
10 0 8 -25 39 -54 68 -60 58 -76 89 -76 144 0 87 59 154 244 281 105 72 107
73 149 65 50 -11 97 -1 122 27 11 12 23 49 29 93 9 61 14 72 31 72 16 0 23
-12 36 -63 27 -102 79 -139 186 -130 46 4 60 10 89 39 30 31 36 46 47 112 l12
78 68 -48 69 -48 -7 -50 c-3 -27 -19 -77 -34 -111 -28 -60 -28 -61 -10 -95 11
-21 18 -56 19 -89 0 -31 5 -61 12 -68 9 -9 6 -12 -16 -12 -39 0 -146 -28 -173
-46 -26 -16 -31 -44 -8 -44 9 0 41 9 73 19 31 11 79 22 105 26 27 4 51 14 54
21 3 8 19 14 37 15 17 0 39 4 49 8 17 6 17 8 -3 26 -12 11 -49 50 -81 87 l-59
66 20 35 c11 19 24 60 28 92 l7 58 185 -149 c236 -190 330 -283 330 -326 0
-51 -85 -124 -223 -193 l-114 -56 -15 -50 -16 -49 27 -20 c30 -21 129 -142
193 -237 38 -56 40 -60 36 -128 -4 -83 -42 -173 -112 -263 -79 -104 -89 -130
-84 -230 5 -85 44 -246 58 -237 4 2 -3 39 -15 82 -49 168 -44 237 26 333 108
150 149 236 149 312 1 32 1 32 16 13 32 -40 103 -197 120 -265 15 -55 23 -70
40 -74 55 -14 156 -242 158 -356 2 -121 -35 -163 -528 -594 -440 -383 -534
-465 -614 -530 l-71 -59 6 -78 c6 -85 -9 -187 -34 -226 -9 -13 -29 -31 -44
-39 -33 -16 -102 -19 -130 -4 -29 16 -55 77 -69 160 -29 184 -66 282 -120 313
-39 23 -48 21 -16 -4 42 -33 47 -53 53 -209 l5 -148 -43 -28 c-66 -41 -181
-92 -309 -135 l-115 -39 718 0 719 0 -21 32 c-20 33 -73 68 -102 68 -10 0 -20
15 -28 39 -10 37 -8 48 27 143 22 57 47 128 57 158 10 30 21 59 25 63 4 5 12
-18 19 -51 19 -96 130 -423 152 -446 22 -24 15 9 -26 117 -102 269 -129 412
-93 482 33 63 78 83 142 65 35 -10 46 -19 69 -63 15 -29 36 -63 47 -77 16 -21
15 -15 -6 38 -25 61 -28 103 -10 103 5 0 17 -19 26 -43 20 -54 59 -108 77
-108 18 0 16 15 -4 31 -23 19 -63 109 -63 141 0 29 40 65 59 54 6 -4 18 -32
28 -63 20 -64 59 -108 103 -118 40 -9 62 -44 58 -92 -1 -21 0 -37 5 -35 4 1
22 2 41 2 19 0 41 6 48 13 29 29 108 77 125 77 25 0 43 19 43 47 0 31 21 73
36 73 29 0 24 -25 -19 -96 -53 -86 -54 -70 23 -244 75 -169 93 -236 76 -287
l-7 -23 4755 0 4756 0 0 64 c0 42 4 66 13 70 10 5 10 7 0 12 -7 3 -13 14 -13
24 0 10 6 21 13 23 9 4 9 6 0 6 -17 1 -17 38 0 45 10 5 10 7 0 12 -7 3 -13 23
-13 44 0 48 21 62 88 58 39 -3 47 -6 50 -25 2 -16 -3 -22 -20 -25 -23 -3 -23
-6 -26 -135 l-3 -132 26 -7 c14 -3 25 -12 25 -20 0 -8 7 -14 15 -14 8 0 15 7
15 15 0 13 30 15 210 15 203 0 210 1 210 20 0 18 7 20 60 20 48 0 60 -3 60
-16 0 -9 6 -14 12 -11 10 3 13 37 13 128 0 119 -1 124 -22 134 -13 5 -23 18
-23 27 0 11 -8 18 -20 18 -13 0 -20 -7 -20 -20 0 -19 -7 -20 -240 -20 l-240 0
0 25 c0 16 6 25 16 25 11 0 14 6 8 23 -15 46 -24 93 -24 128 l0 37 193 4 c215
5 231 9 342 80 86 55 143 78 195 78 52 0 53 -23 3 -49 -21 -10 -46 -28 -56
-39 -18 -20 -16 -42 4 -42 12 0 91 50 105 67 7 8 54 25 105 39 254 68 484 124
513 124 57 0 97 -20 112 -56 28 -67 -10 -133 -288 -502 -130 -173 -138 -186
-130 -215 l8 -32 217 -3 c156 -2 217 1 217 9 0 6 33 45 73 86 l72 75 5 156 c3
93 10 165 17 178 21 37 91 93 130 103 62 17 252 32 300 25 l45 -7 -5 -36 c-19
-119 -19 -159 -2 -194 9 -19 25 -37 36 -40 15 -4 19 -14 19 -51 0 -52 -13 -59
-49 -25 -13 13 -20 27 -16 38 5 18 -102 239 -132 274 -19 20 -56 22 -72 3 -9
-11 2 -38 48 -127 63 -120 131 -285 131 -318 0 -12 -26 -43 -65 -77 -36 -32
-65 -61 -65 -66 0 -4 72 -8 160 -8 131 0 165 3 185 16 23 15 25 15 25 0 0 -14
15 -16 110 -16 l110 0 0 42 c0 90 69 155 205 193 76 22 105 47 105 93 0 54
-41 87 -120 96 -155 17 -254 101 -281 237 -20 101 20 186 111 232 l55 28 300
-3 c334 -3 346 -6 428 -78 79 -69 84 -84 140 -480 l52 -360 222 0 222 0 -5 28
c-5 25 1 35 46 75 59 53 137 86 226 94 55 5 63 9 68 29 4 13 23 35 43 49 30
20 50 25 100 25 l63 0 0 1068 0 1067 -21 13 c-11 7 -27 29 -35 48 -13 31 -18
34 -57 34 -56 0 -87 9 -87 25 0 8 -13 27 -30 43 -37 37 -43 107 -12 120 11 4
63 49 118 99 91 86 97 94 82 109 -15 15 -23 10 -114 -76 -83 -80 -98 -90 -106
-75 -6 9 -7 30 -4 47 4 19 -1 42 -14 68 -11 22 -20 45 -20 52 0 7 18 34 41 60
29 34 50 49 76 54 l35 7 -6 56 c-16 144 -26 321 -26 482 0 97 -3 178 -6 182
-3 3 -18 1 -34 -4 -26 -10 -27 -12 -19 -47 13 -58 11 -162 -6 -226 -22 -86
-55 -155 -79 -168 -13 -7 -117 -14 -271 -18 -274 -8 -306 -14 -425 -76 -83
-44 -165 -111 -164 -135 1 -18 -1 -18 -25 -3 -169 108 -247 229 -276 429 -9
66 20 201 62 285 68 135 214 260 369 317 77 27 87 26 167 -31 53 -37 64 -41
119 -41 51 0 63 4 79 24 10 13 19 34 19 47 0 13 2 24 5 24 18 0 148 -56 185
-80 57 -37 139 -121 175 -180 15 -25 29 -46 30 -48 2 -2 21 2 44 8 46 12 102
-5 119 -37 5 -10 12 -135 15 -278 3 -143 11 -310 18 -372 12 -116 16 -122 67
-123 9 0 12 482 12 2375 l0 2375 -9475 0 -9475 0 2 -2402z m14292 170 c3 -13
10 -54 16 -93 16 -100 48 -150 139 -212 2 -2 -17 -21 -43 -44 -26 -23 -56 -59
-67 -81 -18 -35 -25 -65 -45 -185 -9 -55 -21 -37 -34 49 -16 112 -34 150 -95
207 l-53 48 44 37 c58 49 90 113 104 214 12 81 25 104 34 60z m-12780 -1285
c2 -10 8 -38 12 -63 4 -32 16 -54 40 -78 19 -19 34 -36 34 -39 0 -3 -11 -14
-24 -24 -26 -20 -51 -78 -61 -142 -8 -50 -21 -39 -29 25 -8 58 -25 92 -64 124
l-24 20 26 17 c34 23 53 62 62 125 7 52 18 67 28 35z m1841 -272 c45 -20 105
-67 105 -83 0 -5 -9 -22 -20 -38 l-19 -27 48 -31 c67 -44 131 -143 131 -204 0
-19 -11 -11 -70 47 l-71 70 -249 -1 c-140 -1 -250 2 -250 7 0 15 72 90 102
105 24 12 28 21 28 55 0 51 24 93 64 114 39 20 141 12 201 -14z m12695 -547
c131 -23 181 -43 200 -79 8 -17 15 -31 15 -32 1 -1 23 4 50 12 56 17 161 20
170 4 4 -5 -1 -19 -10 -29 -18 -20 -156 -74 -218 -85 -21 -4 -37 -10 -37 -14
0 -4 27 -30 60 -59 33 -29 60 -58 60 -65 0 -6 -14 -26 -32 -44 l-32 -33 21
-43 c19 -40 24 -43 51 -39 22 3 36 -2 52 -18 23 -23 24 -53 4 -117 -6 -21 -3
-23 32 -23 64 0 110 -18 143 -55 39 -45 46 -89 33 -200 l-10 -90 29 -31 c21
-21 37 -30 52 -27 33 6 76 -13 88 -40 9 -19 6 -37 -16 -91 -18 -46 -24 -71
-17 -78 6 -6 15 -7 21 -3 15 9 51 80 51 101 0 13 3 14 15 4 8 -7 15 -27 15
-46 0 -18 5 -36 10 -39 6 -3 10 -23 10 -44 0 -45 -42 -115 -111 -186 -48 -49
-48 -51 -38 -88 11 -43 5 -44 105 29 74 55 118 101 129 133 3 11 -8 91 -25
178 -17 87 -34 185 -37 219 -11 119 36 210 151 289 30 21 53 42 50 46 -3 5
-34 25 -69 45 -75 41 -80 47 -59 65 12 10 27 10 67 2 29 -6 60 -14 69 -18 15
-6 15 -3 2 41 -31 104 -5 114 46 19 19 -36 38 -65 41 -65 4 0 12 14 19 30 13
32 104 120 123 120 6 0 61 -26 123 -57 l112 -56 17 -66 c18 -71 85 -368 85
-376 0 -3 -46 -5 -103 -5 -126 0 -185 -16 -269 -74 -61 -41 -165 -153 -194
-207 l-13 -27 39 10 c85 22 131 -29 138 -153 3 -59 0 -84 -14 -114 -24 -51
-111 -144 -179 -190 l-55 -38 0 -54 0 -53 -160 0 c-125 0 -168 3 -190 15 -26
13 -89 15 -440 13 l-410 -3 0 23 c0 13 6 22 15 22 8 0 15 5 15 10 0 6 -7 10
-15 10 -9 0 -15 9 -15 21 0 11 -5 19 -10 17 -6 -2 -12 -80 -14 -198 -5 -259
-25 -330 -142 -508 -85 -127 -122 -162 -171 -162 -75 0 -414 120 -462 163 -29
27 -60 93 -61 127 0 33 35 89 63 99 19 7 15 10 -26 16 -74 11 -138 1 -213 -34
-128 -61 -172 -73 -294 -78 l-115 -5 -29 28 c-57 56 -116 145 -116 175 0 17
12 42 30 63 19 21 33 50 36 72 2 21 9 43 15 49 5 5 48 12 94 14 47 1 85 5 85
7 0 3 -12 28 -27 57 -49 97 -93 221 -93 264 0 56 12 84 57 134 l38 42 0 121
c0 112 2 125 28 177 31 64 50 84 72 75 12 -4 15 -28 15 -128 l0 -123 35 69
c48 96 138 210 181 231 41 19 67 17 72 -8 5 -24 -55 -149 -108 -227 l-41 -61
50 7 50 6 62 -58 c34 -33 79 -85 101 -117 45 -67 93 -165 84 -174 -12 -12
-251 28 -259 43 -4 8 -14 14 -21 14 -18 0 -49 -48 -42 -66 6 -16 36 -19 36 -4
0 6 19 10 43 10 48 0 304 -37 318 -46 6 -3 7 -14 4 -25 -4 -11 -1 -44 6 -73
18 -82 -5 -118 -104 -172 -42 -22 -79 -43 -83 -46 -3 -4 -3 -24 1 -45 5 -35
12 -42 71 -73 66 -36 89 -69 65 -93 -20 -20 -13 -25 72 -52 45 -15 89 -36 97
-46 16 -19 105 -47 116 -36 15 14 -7 35 -50 47 -44 12 -46 14 -46 49 0 84 41
207 130 392 50 102 90 188 90 192 0 4 -15 7 -32 7 -41 0 -106 30 -135 61 -41
44 -87 159 -91 226 -7 105 43 168 201 253 l76 41 5 62 c3 34 8 114 11 177 4
63 7 116 9 117 1 1 34 -14 73 -35 40 -20 74 -34 78 -31 6 6 95 287 95 302 0
20 -29 3 -35 -20 -3 -16 -22 -79 -42 -140 l-36 -113 -79 42 c-78 42 -179 122
-198 158 -8 15 3 34 57 102 36 45 82 100 102 121 l35 37 -18 68 c-51 184 -34
243 80 272 54 13 280 4 394 -16z m-14252 -520 c-3 -27 -4 -26 -9 8 -3 22 -1
34 4 29 5 -5 7 -21 5 -37z m76 -16 c12 -16 16 -47 16 -108 0 -47 4 -90 8 -96
13 -20 50 -34 90 -34 24 0 45 -6 53 -16 16 -20 24 -112 11 -144 -10 -25 -11
-26 -88 -19 -44 4 -82 5 -86 3 -3 -2 -9 -22 -13 -44 -7 -43 -41 -101 -64 -108
-9 -3 -11 0 -6 9 5 7 12 81 16 164 4 94 15 184 28 239 25 106 26 134 4 158
-14 16 -15 18 0 18 9 0 23 -10 31 -22z m16566 -85 c39 -62 46 -91 28 -109 -22
-23 -64 0 -72 38 -9 48 -7 118 4 118 5 0 23 -21 40 -47z m-18218 -60 c31 -33
58 -73 58 -86 0 -2 -14 -4 -32 -3 -51 2 -128 93 -101 119 15 16 41 5 75 -30z
m18063 -179 c12 -12 14 -27 9 -66 -6 -46 -5 -50 12 -44 45 13 154 35 211 41
58 6 62 6 78 -19 10 -14 15 -32 12 -39 -2 -7 -49 -24 -103 -37 l-99 -25 102
-5 c112 -5 122 -10 147 -71 l15 -35 -176 0 c-133 1 -177 -2 -180 -11 -4 -10
25 -13 120 -13 68 0 152 -3 186 -6 l61 -7 16 -53 c25 -88 19 -92 -128 -86
l-124 5 -59 -63 c-33 -34 -76 -70 -97 -81 l-36 -18 -27 34 c-35 47 -100 174
-124 246 l-20 59 35 51 c28 43 84 191 84 225 0 33 57 45 85 18z m-13142 -95
c17 -20 17 -22 2 -40 -10 -10 -21 -33 -25 -51 l-7 -33 -12 42 c-6 23 -19 46
-28 51 -14 8 -13 12 6 31 12 12 25 36 29 54 l6 32 6 -32 c3 -18 13 -42 23 -54z
m12522 -179 c26 -10 37 -29 49 -86 l7 -32 -45 16 c-73 27 -120 -3 -150 -94 -8
-22 -25 -45 -40 -54 -24 -14 -27 -13 -47 7 -20 20 -21 25 -10 70 22 85 73 145
146 171 39 14 58 14 90 2z m-16061 -124 c85 -66 105 -72 155 -47 22 12 47 21
56 21 25 0 62 -44 74 -86 10 -38 10 -39 -37 -80 l-47 -41 0 -68 c0 -81 -18
-98 -35 -33 -16 58 -56 135 -95 183 -18 22 -49 66 -69 98 -20 31 -46 63 -56
70 -21 12 -27 27 -11 27 5 0 34 -20 65 -44z m16140 -209 c39 -29 4 -139 -46
-145 -55 -6 -74 72 -33 135 17 26 52 30 79 10z m-15245 -497 c46 -5 86 -11 88
-13 2 -2 -34 -14 -79 -26 -46 -13 -130 -38 -188 -57 l-105 -33 -108 13 c-59 7
-109 15 -111 17 -3 2 75 29 172 60 118 38 189 55 212 53 19 -3 73 -9 119 -14z
m2364 -188 c-3 -14 -12 -22 -21 -20 -25 5 -25 24 0 35 28 13 29 13 21 -15z
m172 11 c29 -21 6 -34 -71 -41 -61 -4 -67 -3 -61 12 4 10 7 24 7 32 0 19 99
17 125 -3z m-2620 -52 l90 -17 -55 -8 c-30 -4 -116 -19 -190 -32 -106 -20
-151 -24 -212 -18 -43 4 -78 9 -78 13 0 3 53 25 118 48 131 48 151 49 327 14z
m2418 -40 c-4 -9 -9 -59 -11 -112 -3 -80 0 -99 15 -118 37 -46 158 -46 196 0
13 17 17 41 17 116 0 52 -4 103 -10 113 -7 13 -6 19 5 24 25 9 35 -29 35 -138
0 -103 -1 -106 -30 -140 -24 -27 -41 -36 -79 -41 -65 -9 -124 8 -155 46 -24
29 -26 37 -26 135 0 58 5 114 10 124 13 24 45 15 33 -9z m127 -18 c0 -15 1
-15 13 2 10 12 16 14 21 7 11 -18 -2 -32 -28 -32 -25 0 -51 22 -39 33 13 13
33 7 33 -10z m5636 -105 c16 -17 16 -20 -4 -41 -12 -13 -22 -32 -22 -43 0 -10
-4 -25 -9 -33 -6 -10 -11 -4 -16 20 -4 19 -16 44 -28 57 l-20 22 20 23 c11 12
24 40 28 62 l8 40 13 -44 c8 -24 21 -52 30 -63z m-5593 48 c8 -21 -16 -39 -31
-24 -7 7 -12 18 -12 25 0 18 36 17 43 -1z m-53 -81 c0 -7 -9 -17 -20 -20 -11
-3 -20 -15 -20 -26 0 -19 -34 -28 -44 -10 -10 16 18 62 36 57 9 -2 19 3 22 11
7 17 26 8 26 -12z m-437 -1 c45 -23 108 -94 105 -119 -4 -30 -44 -32 -59 -3
-15 28 -32 42 -81 68 -23 12 -38 28 -38 39 0 35 23 40 73 15z m1127 -64 c10
-19 4 -70 -9 -70 -15 0 -26 46 -16 68 12 27 12 27 25 2z m-1272 -185 c7 -75
27 -99 57 -69 13 14 15 13 15 -6 0 -11 -7 -23 -15 -26 -39 -15 -125 54 -125
100 0 30 9 38 40 34 20 -2 26 -9 28 -33z m262 -26 c-12 -29 -54 -69 -71 -69
-13 0 -11 37 3 59 11 18 13 18 25 3 12 -16 14 -16 28 2 8 11 15 29 16 40 0 12
3 15 6 8 3 -7 -1 -26 -7 -43z m9216 -6 c64 -22 157 -113 175 -171 7 -24 18
-42 26 -42 8 0 13 -6 11 -12 -3 -7 -13 -13 -23 -13 -13 0 -22 14 -32 49 -19
65 -99 146 -167 169 -139 48 -305 -4 -433 -135 -106 -108 -164 -246 -186 -440
l-12 -107 -73 58 c-217 173 -336 160 -472 -52 -30 -47 -61 -86 -68 -86 -24 -1
57 127 127 202 106 114 240 103 407 -31 l61 -50 7 71 c17 180 77 326 182 437
113 119 214 169 345 170 45 0 95 -7 125 -17z m3039 -470 c-4 -10 -10 -30 -13
-45 -6 -36 -62 -53 -149 -44 -87 9 -89 10 -85 55 l4 39 91 -5 c53 -3 103 -1
117 5 36 15 43 14 35 -5z m-2135 -138 l0 -105 -205 0 -205 0 0 98 c0 54 3 102
7 105 3 4 96 7 205 7 l198 0 0 -105z"/>
<path d="M16090 3224 c-41 -7 -128 -16 -194 -20 -65 -4 -112 -10 -105 -14 21
-12 309 -60 356 -60 55 0 68 18 50 63 -8 19 -19 37 -23 39 -5 2 -43 -1 -84 -8z"/>
<path d="M16015 3051 c-28 -6 -30 -9 -28 -51 4 -81 74 -135 81 -63 2 18 -1 40
-7 50 -8 14 -4 20 21 30 59 25 8 51 -67 34z"/>
<path d="M16203 3050 c-19 -8 -22 -14 -17 -42 9 -45 36 -92 57 -96 21 -4 23
31 3 69 -12 23 -11 27 5 38 46 28 7 53 -48 31z"/>
<path d="M15787 3033 c-13 -12 -7 -33 8 -33 8 0 15 9 15 20 0 20 -11 26 -23
13z"/>
<path d="M16350 2908 c0 -7 5 -20 10 -28 8 -12 10 -11 10 7 0 12 -4 25 -10 28
-5 3 -10 0 -10 -7z"/>
<path d="M17292 2867 c-39 -40 -42 -67 -8 -67 28 0 76 51 76 81 0 30 -32 23
-68 -14z"/>
<path d="M16050 2722 c0 -28 109 -106 186 -132 114 -40 247 -19 268 41 13 39
0 78 -31 90 -15 5 -116 13 -225 16 -197 6 -198 6 -198 -15z m137 2 c29 -6 30
-8 22 -41 -4 -20 -14 -40 -21 -44 -18 -12 -46 19 -54 59 -7 35 -3 37 53 26z
m211 -13 c12 -7 11 -14 -2 -40 -17 -32 -23 -36 -42 -23 -13 8 -34 46 -34 61 0
13 59 14 78 2z"/>
<path d="M17127 2733 c-17 -16 -4 -34 39 -53 35 -15 50 -17 60 -9 19 16 10 25
-43 49 -52 23 -48 22 -56 13z"/>
<path d="M16400 2501 c-49 -15 -55 -20 -58 -46 -1 -17 2 -36 7 -44 12 -19 41
-6 41 18 0 15 10 23 39 31 42 11 67 33 56 50 -8 13 -18 12 -85 -9z"/>
<path d="M16191 2424 l-23 -16 30 -18 c28 -17 41 -49 66 -162 l6 -28 -84 0
-84 0 -21 -92 c-33 -142 -61 -322 -53 -329 9 -8 265 -89 281 -89 8 0 9 22 5
69 l-7 70 57 16 56 16 0 49 c0 72 -11 92 -89 156 -66 54 -85 84 -62 98 5 4 11
0 14 -6 6 -18 62 13 123 68 l49 43 -52 51 c-39 38 -59 50 -82 50 -23 0 -34 7
-45 29 -14 25 -34 41 -55 41 -3 0 -17 -7 -30 -16z"/>
<path d="M15410 2212 c-89 -44 -118 -73 -80 -79 24 -4 205 90 205 107 0 27
-29 20 -125 -28z"/>
<path d="M14940 1902 c0 -5 11 -19 24 -31 29 -27 47 -10 20 20 -17 19 -44 26
-44 11z"/>
<path d="M18395 3951 c-51 -13 -89 -37 -137 -89 -87 -93 -99 -149 -47 -220 17
-23 52 -55 77 -70 41 -23 57 -27 123 -26 128 1 186 54 143 132 -17 32 -24 37
-52 34 -18 -1 -42 3 -52 8 -20 11 -20 11 2 41 13 18 37 33 61 40 l39 10 -5 46
c-8 76 -71 114 -152 94z"/>
<path d="M17705 3720 c-29 -56 -12 -160 26 -160 41 0 55 91 17 111 -22 12 -21
12 6 26 18 9 26 20 22 30 -3 8 -6 17 -6 19 0 2 -11 4 -25 4 -17 0 -29 -9 -40
-30z"/>
<path d="M3036 3425 c-8 -21 11 -27 75 -23 40 2 54 7 54 18 0 23 -120 27 -129
5z"/>
<path d="M3275 3233 c-31 -79 -40 -90 -120 -151 -125 -94 -135 -109 -150 -229
l-7 -53 45 0 c25 0 48 3 50 8 3 4 7 41 8 82 3 61 1 75 -11 75 -11 0 -16 -13
-18 -45 -3 -63 -11 -90 -23 -90 -16 0 -2 98 16 127 8 12 51 49 94 83 90 68
118 101 149 180 26 65 27 80 8 80 -8 0 -26 -29 -41 -67z"/>
<path d="M2687 3183 c-17 -27 47 -50 77 -28 11 8 17 17 14 21 -11 10 -85 17
-91 7z"/>
<path d="M3711 3061 c-26 -81 -50 -208 -51 -261 0 -45 18 -110 31 -110 6 0 5
8 -2 21 -26 49 -11 199 33 337 11 34 18 67 16 74 -2 6 -14 -21 -27 -61z"/>
<path d="M34 3066 c-21 -55 40 -156 85 -141 39 12 72 106 40 113 -11 2 -20 -7
-27 -27 -6 -17 -15 -31 -21 -31 -14 0 -41 41 -41 61 0 9 -7 22 -15 29 -12 10
-16 9 -21 -4z"/>
<path d="M3780 3068 c0 -16 51 -68 66 -68 26 0 25 23 -2 51 -28 29 -64 39 -64
17z"/>
<path d="M3748 2782 c-12 -2 -18 -13 -18 -32 0 -39 18 -47 30 -14 14 35 9 50
-12 46z"/>
<path d="M3492 2673 c-45 -4 -64 -25 -44 -45 8 -8 8 -15 1 -25 -12 -14 -6 -43
9 -43 5 0 30 16 56 36 25 21 49 35 51 32 3 -3 -2 -25 -11 -49 -8 -24 -24 -109
-34 -189 -10 -80 -22 -164 -26 -187 -3 -24 -3 -43 1 -43 26 0 109 81 135 130
44 86 65 302 35 360 -15 28 -19 30 -73 28 -31 -1 -76 -3 -100 -5z"/>
<path d="M168 2459 c-22 -14 1 -37 42 -41 41 -4 68 11 56 31 -7 11 -83 19 -98
10z"/>
<path d="M224 2232 c-6 -4 -16 -17 -23 -29 -6 -13 -21 -23 -32 -23 -19 0 -20
-4 -15 -37 8 -44 23 -217 20 -221 -2 -3 -121 37 -156 52 -13 6 -18 4 -18 -7 0
-16 73 -48 165 -72 59 -15 70 -6 55 46 -16 56 -11 144 12 214 20 63 17 94 -8
77z"/>
<path d="M563 2208 c-21 -26 -25 -60 -12 -111 l12 -52 18 75 c14 61 15 77 5
88 -10 11 -15 11 -23 0z"/>
<path d="M2947 1783 c-4 -3 -7 -18 -7 -32 0 -19 8 -30 29 -39 16 -7 37 -24 46
-38 19 -30 55 -164 55 -208 0 -17 4 -38 10 -46 8 -12 12 -12 36 0 51 28 57 49
40 139 -21 115 -61 182 -128 217 -28 15 -70 19 -81 7z"/>
<path d="M2817 1178 c-24 -37 -41 -94 -34 -112 10 -26 42 -3 61 44 20 50 20
64 2 79 -12 10 -18 8 -29 -11z"/>
<path d="M2813 703 c-7 -3 -13 -13 -13 -23 0 -13 11 -20 38 -25 61 -11 108
-44 135 -94 29 -54 34 -76 47 -230 10 -117 19 -143 42 -123 11 9 12 35 2 146
-13 152 -31 216 -74 268 -40 48 -139 93 -177 81z"/>
<path d="M15686 605 c-43 -23 -82 -48 -86 -55 -8 -12 -227 -96 -340 -130 -38
-11 -109 -29 -157 -39 l-88 -18 60 -7 c73 -9 85 -18 85 -62 l0 -34 -81 0 c-51
0 -78 -4 -74 -10 3 -5 40 -10 81 -10 59 0 74 -3 74 -15 0 -12 -14 -15 -67 -15
-74 0 -112 -13 -71 -23 12 -4 49 -7 81 -7 44 0 57 -3 57 -15 0 -12 -15 -15
-74 -15 -41 0 -78 -4 -81 -10 -4 -6 23 -10 74 -10 l81 0 0 -65 0 -65 75 0 c67
0 74 2 68 18 -9 27 -34 52 -52 52 -10 0 2 17 32 46 26 25 71 80 99 122 28 42
86 124 129 182 l78 106 67 2 c78 3 87 7 79 33 -4 10 -2 19 3 19 5 0 21 9 36
21 21 17 24 24 15 35 -15 18 -11 19 -103 -31z"/>
<path d="M3980 462 c0 -11 14 -60 31 -109 l31 -88 -18 -72 c-18 -73 -16 -90 9
-80 11 4 87 226 87 256 0 24 -38 11 -45 -16 -6 -25 -9 -21 -34 47 -18 48 -34
76 -44 78 -11 2 -17 -3 -17 -16z"/>
<path d="M4122 448 c3 -21 7 -23 63 -19 68 4 75 6 75 27 0 11 -16 14 -71 14
-67 0 -70 -1 -67 -22z"/>
<path d="M4414 335 c-9 -24 56 -286 73 -292 31 -12 30 18 -5 156 -35 136 -54
174 -68 136z"/>
<path d="M18845 266 c-34 -15 -71 -53 -62 -63 4 -4 20 6 37 22 22 21 42 29 80
33 27 2 50 8 50 13 0 14 -71 10 -105 -5z"/>
<path d="M0 246 c0 -15 167 -69 299 -96 95 -19 258 -34 494 -45 110 -5 127 -4
127 10 0 13 -18 15 -112 15 -271 0 -537 37 -720 99 -62 21 -88 26 -88 17z"/>
<path d="M4290 90 c-113 -91 -113 -90 34 -90 l126 0 -37 75 c-21 41 -40 75
-43 75 -3 0 -39 -27 -80 -60z"/>
<path d="M17567 123 c-14 -13 -7 -60 11 -76 37 -34 82 -15 82 33 0 14 -5 31
-12 38 -13 13 -70 17 -81 5z"/>
<path d="M1051 38 c-14 -7 -26 -19 -29 -25 -3 -10 47 -13 230 -12 l233 1 -75
20 c-97 25 -324 35 -359 16z"/>
<path d="M17702 28 c-22 -22 -13 -28 41 -28 l52 1 -24 19 c-26 23 -52 25 -69
8z"/>
<path d="M14850 15 c0 -8 9 -15 20 -15 11 0 20 7 20 15 0 8 -9 15 -20 15 -11
0 -20 -7 -20 -15z"/>
<path d="M18880 15 l-35 -13 53 -1 c40 -1 52 2 52 14 0 18 -23 18 -70 0z"/>
<path d="M8 3 c7 -3 16 -2 19 1 4 3 -2 6 -13 5 -11 0 -14 -3 -6 -6z"/>
</g>
</svg>
